<?xml version="1.0" encoding="utf-8"?>
<!-- Generated by IcoMoon.io -->
<!DOCTYPE svg PUBLIC "-//W3C//DTD SVG 1.1//EN" "http://www.w3.org/Graphics/SVG/1.1/DTD/svg11.dtd">
<svg version="1.1" xmlns="http://www.w3.org/2000/svg" xmlns:xlink="http://www.w3.org/1999/xlink" width="41" height="32" viewBox="0 0 41 32">
<path fill="#fff" d="M8.327 15.749v0.020l-0.113-0.121z"></path>
<path fill="#fff" d="M39.726 8.537l-0.282 0.003v-0.006z"></path>
<path fill="#fff" d="M39.721 8.539l0.246 0.002v-0.006l-0.246 0.004z"></path>
<path fill="#fff" d="M40.738 8.549l-1.017-0.010-0.278 0.002-9.503 0.118-2.434 2.098 0.002 0.002-7.168 6.205h-0.041l-0.313 0.268-0.312-0.268h-0.044l-7.173-6.209 0.020-0.020-1.6-1.385-0.020 0.022-0.548-0.472-10.31 0.125 19.877 22.981h0.221l11.648-13.433 0.010 0.014 1.368-1.521 6.32-7.044v0.028l1.294-1.498zM20 27.983l-11.786-12.334 0.113 0.101 11.661 10.157 11.768-10.258-11.756 12.335z"></path>
<path fill="#fff" d="M39.938 0.047l-39.898-0.047 10.273 8.896 19.627-0.24z"></path>
</svg>
