<?xml version="1.0" encoding="utf-8"?>
<!-- Generator: Adobe Illustrator 15.0.0, SVG Export Plug-In  -->
<!DOCTYPE svg PUBLIC "-//W3C//DTD SVG 1.1//EN" "http://www.w3.org/Graphics/SVG/1.1/DTD/svg11.dtd" [
	<!ENTITY ns_flows "http://ns.adobe.com/Flows/1.0/">
]>
<svg version="1.1"
	 xmlns="http://www.w3.org/2000/svg" xmlns:xlink="http://www.w3.org/1999/xlink" xmlns:a="http://ns.adobe.com/AdobeSVGViewerExtensions/3.0/"
	 x="0px" y="0px" width="405px" height="318px" viewBox="0 0 405 318" enable-background="new 0 0 405 318" xml:space="preserve">
<defs>
</defs>
<polygon fill="#ED6B52" points="82.748,156.51 82.748,156.709 81.626,155.508 "/>
<polygon fill="#ED6B52" points="394.775,84.838 391.969,84.871 391.969,84.813 "/>
<path fill="#ED6B52" d="M394.729,84.853l2.447,0.019v-0.059L394.729,84.853z"/>
<path fill="#ED6B52" d="M404.833,84.954l-7.656-0.083l-2.447-0.019l-2.761,0.019l-94.438,1.168l-24.188,20.848l0.024,0.02
	l-34.108,29.543l-37.118,32.115h-0.412l-3.115,2.663l-3.098-2.663h-0.437l-37.078-32.115l-34.204-29.586l0.195-0.199L108.098,92.9
	l-0.198,0.219l-5.444-4.693l-89.573,1.085L0,89.666l12.882,14.897l184.647,213.473h2.199l82.356-95.011l0.49-0.553l32.902-37.931
	l0.098,0.135l13.59-15.111l62.804-69.995v0.275L404.833,84.954z M198.746,278.081L82.748,156.709l-1.122-1.201l1.122,1.002
	l75.979,66.175l0.146,0.082l38.967,33.985l0.789,0.691l116.946-101.936L198.746,278.081z"/>
<polygon fill="#ED6B52" points="396.886,0.469 0.398,0 102.49,88.405 297.53,86.023 "/>
</svg>
